<?xml version="1.0" encoding="UTF-8" standalone="no"?>
<svg
   width="210mm"
   height="297mm"
   viewBox="0 0 210 297"
   version="1.1"
   id="svg8"
   inkscape:version="1.2.1 (9c6d41e, 2022-07-14)"
   sodipodi:docname="SynthCardMixer.svg"
   xmlns:inkscape="http://www.inkscape.org/namespaces/inkscape"
   xmlns:sodipodi="http://sodipodi.sourceforge.net/DTD/sodipodi-0.dtd"
   xmlns="http://www.w3.org/2000/svg"
   xmlns:svg="http://www.w3.org/2000/svg"
   xmlns:rdf="http://www.w3.org/1999/02/22-rdf-syntax-ns#"
   xmlns:cc="http://creativecommons.org/ns#"
   xmlns:dc="http://purl.org/dc/elements/1.1/">
  <defs
     id="defs2">
    <rect
       x="268.34646"
       y="109.6063"
       width="7.5590551"
       height="22.677165"
       id="rect669" />
    <rect
       x="34.75"
       y="30.25"
       width="24.25"
       height="17.75"
       id="rect1308" />
    <rect
       x="70"
       y="8"
       width="8"
       height="31"
       id="rect902" />
  </defs>
  <sodipodi:namedview
     id="base"
     pagecolor="#ffffff"
     bordercolor="#666666"
     borderopacity="1.0"
     inkscape:pageopacity="0.0"
     inkscape:pageshadow="2"
     inkscape:zoom="2.8284271"
     inkscape:cx="117.5565"
     inkscape:cy="98.111067"
     inkscape:document-units="mm"
     inkscape:current-layer="layer2"
     inkscape:document-rotation="0"
     showgrid="true"
     inkscape:window-width="1806"
     inkscape:window-height="1027"
     inkscape:window-x="32"
     inkscape:window-y="25"
     inkscape:window-maximized="0"
     inkscape:showpageshadow="2"
     inkscape:pagecheckerboard="0"
     inkscape:deskcolor="#d1d1d1">
    <inkscape:grid
       type="xygrid"
       id="grid892"
       units="mm"
       spacingx="0.05"
       spacingy="0.05" />
  </sodipodi:namedview>
  <metadata
     id="metadata5">
    <rdf:RDF>
      <cc:Work
         rdf:about="">
        <dc:format>image/svg+xml</dc:format>
        <dc:type
           rdf:resource="http://purl.org/dc/dcmitype/StillImage" />
      </cc:Work>
    </rdf:RDF>
  </metadata>
  <g
     inkscape:label="Cut Lines"
     inkscape:groupmode="layer"
     id="layer1"
     style="display:inline">
    <rect
       style="font-variation-settings:'wght' 500;fill:none;stroke:#000000;stroke-width:0.1;paint-order:stroke fill markers"
       id="rect894"
       width="88.900002"
       height="50.799999"
       x="0.050000001"
       y="0.050000001"
       rx="3" />
  </g>
  <g
     inkscape:groupmode="layer"
     id="layer2"
     inkscape:label="Labels">
    <g
       id="g795"
       transform="translate(20.734,-11)">
      <text
         xml:space="preserve"
         style="font-size:3.88056px;line-height:1.25;font-family:'Exo 2';-inkscape-font-specification:'Exo 2, ';letter-spacing:-0.280458px;stroke-width:0.264583"
         x="42.823883"
         y="26.731915"
         id="text785"><tspan
           sodipodi:role="line"
           id="tspan783"
           style="font-style:normal;font-variant:normal;font-weight:600;font-stretch:normal;font-size:3.88056px;font-family:'Exo 2';-inkscape-font-specification:'Exo 2 Semi-Bold';stroke-width:0.264583"
           x="42.823883"
           y="26.731915"
           dx="-0.079999998">by Chris Hasty</tspan></text>
      <text
         xml:space="preserve"
         style="font-size:3.52778px;line-height:1.25;font-family:'Exo 2';-inkscape-font-specification:'Exo 2, ';letter-spacing:-0.232833px;stroke-width:0.264583"
         x="43"
         y="30"
         id="text789"><tspan
           sodipodi:role="line"
           id="tspan787"
           style="font-size:3.52778px;stroke-width:0.264583"
           x="43"
           y="30">synthcard.com</tspan></text>
    </g>
    <g
       id="g1300"
       transform="matrix(0.76788102,0,0,0.76788102,32.277874,17.520499)">
      <path
         d="m 41.880583,34.758239 c -0.217359,-0.0098 -0.28285,-0.01186 -0.833594,-0.01186 -0.550745,0 -0.615978,0.002 -0.833336,0.01186 -0.559512,0.02552 -0.820187,0.290584 -0.845455,0.845455 -0.01006,0.217616 -0.01238,0.282849 -0.01238,0.833593 0,0.550745 0.0023,0.615979 0.01212,0.833595 0.02552,0.553838 0.28517,0.819928 0.845455,0.845455 0.217358,0.0098 0.28285,0.01211 0.833595,0.01211 0.551002,0 0.616235,-0.002 0.833593,-0.01186 0.559511,-0.02552 0.819929,-0.2911 0.845455,-0.845455 0.0098,-0.217616 0.01186,-0.282849 0.01186,-0.833593 0,-0.550745 -0.002,-0.615979 -0.01186,-0.833338 -0.02552,-0.555127 -0.286458,-0.820444 -0.845454,-0.845969 z m -0.833594,2.738252 c -0.585038,0 -1.059203,-0.474166 -1.059203,-1.059204 0,-0.585036 0.474423,-1.059203 1.059203,-1.059203 0.584779,0 1.059203,0.474167 1.059203,1.059203 0,0.585038 -0.474165,1.059204 -1.059203,1.059204 z m 1.101231,-1.912652 c -0.136655,0 -0.247526,-0.11087 -0.247526,-0.247526 0,-0.136654 0.110871,-0.247525 0.247526,-0.247525 0.136655,0 0.247526,0.110871 0.247526,0.247525 0,0.136656 -0.110871,0.247526 -0.247526,0.247526 z m -0.413574,0.853448 c 0,0.379798 -0.30786,0.687658 -0.687657,0.687658 -0.379797,0 -0.687658,-0.30786 -0.687658,-0.687658 0,-0.379797 0.307861,-0.687656 0.687658,-0.687656 0.379797,0 0.687657,0.307859 0.687657,0.687656 z m 1.117217,-3.094071 h -3.609748 c -0.711895,0 -1.289197,0.577302 -1.289197,1.289197 v 3.609749 c 0,0.711894 0.577302,1.289196 1.289197,1.289196 h 3.609748 c 0.712152,0 1.289197,-0.577302 1.289197,-1.289196 v -3.609749 c 0,-0.711895 -0.577045,-1.289197 -1.289197,-1.289197 z m 0.245464,3.944425 c -0.03403,0.750055 -0.451477,1.165691 -1.199727,1.199984 -0.220194,0.01006 -0.290326,0.01238 -0.850611,0.01238 -0.560285,0 -0.63016,-0.0023 -0.850354,-0.01238 -0.749796,-0.03429 -1.165434,-0.450703 -1.199984,-1.199984 -0.01006,-0.219937 -0.01238,-0.290069 -0.01238,-0.850354 0,-0.560027 0.0023,-0.630417 0.01238,-0.850354 0.03455,-0.749796 0.450703,-1.165691 1.199984,-1.199725 0.220194,-0.01031 0.290069,-0.01263 0.850354,-0.01263 0.560285,0 0.630417,0.0023 0.850611,0.01238 0.749797,0.03429 1.166208,0.451476 1.199727,1.199726 0.01006,0.220194 0.01238,0.290584 0.01238,0.850611 0,0.560285 -0.0023,0.630417 -0.01238,0.850354 z"
         id="path1247"
         style="stroke-width:0.257839"
         inkscape:label="Instagram" />
      <path
         d="M 35.896099,33.380286 H 32.28635 c -0.711894,0 -1.289196,0.577302 -1.289196,1.289197 v 3.609748 c 0,0.711895 0.577302,1.289197 1.289196,1.289197 h 3.609749 c 0.712153,0 1.289196,-0.577302 1.289196,-1.289197 v -3.609748 c 0,-0.711895 -0.577043,-1.289197 -1.289196,-1.289197 z m -1.15151,5.051071 c -0.104425,0.02011 -0.137686,-0.04409 -0.137686,-0.09901 v -0.565958 c 0,-0.192606 -0.06755,-0.317915 -0.141811,-0.38186 0.459469,-0.05105 0.942144,-0.225608 0.942144,-1.017691 0,-0.225351 -0.08045,-0.409449 -0.212202,-0.553581 0.02115,-0.05209 0.09179,-0.261964 -0.02037,-0.545846 0,0 -0.17301,-0.05544 -0.566731,0.211429 -0.165016,-0.04642 -0.341378,-0.06884 -0.516709,-0.06987 -0.175331,7.72e-4 -0.351693,0.02347 -0.516452,0.06936 -0.393976,-0.26687 -0.567244,-0.211435 -0.567244,-0.211435 -0.111902,0.284139 -0.04125,0.493762 -0.01985,0.546104 -0.132013,0.144389 -0.212459,0.328229 -0.212459,0.55358 0,0.79002 0.481386,0.967155 0.939824,1.019497 -0.05905,0.05157 -0.112417,0.142327 -0.130982,0.275888 -0.117833,0.0526 -0.416153,0.143616 -0.60025,-0.171722 0,0 -0.109066,-0.19802 -0.316369,-0.212717 0,0 -0.201114,-0.0025 -0.01418,0.125568 0,0 0.135366,0.06343 0.229219,0.301672 0,0 0.11938,0.368195 0.693072,0.2434 v 0.383923 c 0,0.05441 -0.03326,0.118348 -0.136139,0.09927 -0.819929,-0.272536 -1.410897,-1.045795 -1.410897,-1.957 0,-1.139392 0.923581,-2.062714 2.062714,-2.062714 1.139134,0 2.062715,0.923322 2.062715,2.062714 0,0.910946 -0.590194,1.683948 -1.40935,1.957 z"
         id="path1280"
         style="stroke-width:0.257839"
         inkscape:label="GitHub" />
    </g>
    <text
       xml:space="preserve"
       style="font-size:11.2889px;line-height:1.25;font-family:'Exo 2';-inkscape-font-specification:'Exo 2, ';letter-spacing:-0.328083px;stroke-width:0.264583"
       x="43.235371"
       y="11.037697"
       id="text379"><tspan
         sodipodi:role="line"
         id="tspan377"
         style="font-style:normal;font-variant:normal;font-weight:bold;font-stretch:normal;font-size:11.2889px;font-family:'Exo 2';-inkscape-font-specification:'Exo 2 Bold';stroke-width:0.264583"
         x="43.235371"
         y="11.037697">MixCard</tspan></text>
    <text
       xml:space="preserve"
       style="font-size:3.88056px;line-height:1.25;font-family:'Exo 2';-inkscape-font-specification:'Exo 2, ';letter-spacing:-0.238125px;stroke-width:0.264583"
       x="66.693451"
       y="46.724834"
       id="text709"><tspan
         sodipodi:role="line"
         id="tspan707"
         style="font-size:3.88056px;stroke-width:0.264583"
         x="66.693451"
         y="46.724834">chris_h_bass</tspan></text>
  </g>
</svg>
